STARTFONT 2.1
COMMENT
COMMENT Converted from OpenType font "..\ttf\ITC Avant Garde Gothic Book Condensed.otf" by "otf2bdf.exe 3.0".
COMMENT
FONT -FreeType-AvantGarde CondBook-Medium-R-Normal--33-240-100-100-P-137-ISO10646-1
SIZE 24 100 100
FONTBOUNDINGBOX 38 39 -5 -7
STARTPROPERTIES 19
FOUNDRY "FreeType"
FAMILY_NAME "AvantGarde CondBook"
WEIGHT_NAME "Medium"
SLANT "R"
SETWIDTH_NAME "Normal"
ADD_STYLE_NAME ""
PIXEL_SIZE 33
POINT_SIZE 240
RESOLUTION_X 100
RESOLUTION_Y 100
SPACING "P"
AVERAGE_WIDTH 137
CHARSET_REGISTRY "ISO10646"
CHARSET_ENCODING "1"
FONT_ASCENT 23
FONT_DESCENT 6
COPYRIGHT "Copyright (c) 1989, 1990 Adobe Systems Incorporated.  All Rights Reserved.Avant Garde Gothic is a registered trademark of International Typeface Corporation."
_OTF_FONTFILE "..\ttf\ITC Avant Garde Gothic Book Condensed.otf"
_OTF_PSNAME "AvantGarde-CondBook"
ENDPROPERTIES
CHARS 235
STARTCHAR 0020
ENCODING 32
SWIDTH 270 0
DWIDTH 9 0
BBX 0 0 0 0
BITMAP
ENDCHAR
STARTCHAR 0021
ENCODING 33
SWIDTH 210 0
DWIDTH 7 0
BBX 3 24 2 0
BITMAP
E0
E0
E0
E0
E0
E0
E0
E0
E0
E0
E0
E0
E0
E0
E0
E0
E0
E0
00
00
00
E0
E0
E0
ENDCHAR
STARTCHAR 0022
ENCODING 34
SWIDTH 330 0
DWIDTH 11 0
BBX 6 9 2 15
BITMAP
CC
CC
CC
CC
CC
CC
CC
CC
CC
ENDCHAR
STARTCHAR 0023
ENCODING 35
SWIDTH 570 0
DWIDTH 19 0
BBX 17 24 1 0
BITMAP
030E00
030E00
030E00
070C00
070C00
060C00
060C00
061C00
7FFF80
7FFF80
0E1800
0E1800
0C1800
0C1800
0C1800
FFFF00
FFFF00
1C3000
1C3000
183000
183000
187000
187000
186000
ENDCHAR
STARTCHAR 0024
ENCODING 36
SWIDTH 570 0
DWIDTH 19 0
BBX 15 31 2 -5
BITMAP
0300
0300
0300
0FC0
3FF0
7CF8
7038
E01C
E01C
E01C
E000
7000
7800
3E00
1F80
07F0
01F8
003C
001C
000E
000E
000E
E00E
E00E
701C
7878
3FF0
1FC0
0300
0300
0300
ENDCHAR
STARTCHAR 0025
ENCODING 37
SWIDTH 900 0
DWIDTH 30 0
BBX 26 24 2 0
BITMAP
1F806000
3FC0C000
70E0C000
E0618000
E0718000
E0718000
E0730000
E0730000
E0660000
70E60000
3FCC0000
1F0C0000
001C3E00
0018FF00
0019C380
003181C0
003381C0
006381C0
006381C0
00E381C0
00C181C0
00C1C380
0180FF00
01807E00
ENDCHAR
STARTCHAR 0026
ENCODING 38
SWIDTH 600 0
DWIDTH 20 0
BBX 18 24 1 0
BITMAP
03C000
0FE000
0EF000
1C7000
1C7000
1C7000
1C7000
1C6000
0EE000
0FC080
0780C0
0F01C0
3F8180
79C380
70C700
E0E700
E07E00
E03C00
E03C00
E03C00
703E00
78F700
3FE780
0FC380
ENDCHAR
STARTCHAR 0027
ENCODING 39
SWIDTH 210 0
DWIDTH 7 0
BBX 2 9 3 15
BITMAP
C0
C0
C0
C0
C0
C0
C0
C0
C0
ENDCHAR
STARTCHAR 0028
ENCODING 40
SWIDTH 390 0
DWIDTH 13 0
BBX 10 30 2 -5
BITMAP
00C0
01C0
0380
0700
0E00
1C00
3800
3800
7000
7000
7000
6000
E000
E000
E000
E000
E000
E000
6000
7000
7000
3800
3800
1C00
1E00
0E00
0780
03C0
00C0
0040
ENDCHAR
STARTCHAR 0029
ENCODING 41
SWIDTH 390 0
DWIDTH 13 0
BBX 10 30 1 -5
BITMAP
C000
E000
7800
3C00
1C00
0E00
0700
0700
0380
0380
0380
01C0
01C0
01C0
01C0
01C0
01C0
01C0
0180
0380
0380
0300
0700
0E00
0E00
1C00
3800
F000
C000
8000
ENDCHAR
STARTCHAR 002A
ENCODING 42
SWIDTH 450 0
DWIDTH 15 0
BBX 11 12 2 12
BITMAP
0E00
0400
4440
E4E0
75C0
0E00
1F00
75C0
E4E0
0400
0400
0E00
ENDCHAR
STARTCHAR 002B
ENCODING 43
SWIDTH 600 0
DWIDTH 20 0
BBX 17 16 2 1
BITMAP
01C000
01C000
01C000
01C000
01C000
01C000
01C000
FFFF80
FFFF80
01C000
01C000
01C000
01C000
01C000
01C000
01C000
ENDCHAR
STARTCHAR 002C
ENCODING 44
SWIDTH 270 0
DWIDTH 9 0
BBX 6 7 0 -4
BITMAP
1C
18
38
30
60
60
C0
ENDCHAR
STARTCHAR 002D
ENCODING 45
SWIDTH 330 0
DWIDTH 11 0
BBX 8 2 1 9
BITMAP
FF
FF
ENDCHAR
STARTCHAR 002E
ENCODING 46
SWIDTH 270 0
DWIDTH 9 0
BBX 3 3 3 1
BITMAP
E0
E0
E0
ENDCHAR
STARTCHAR 002F
ENCODING 47
SWIDTH 270 0
DWIDTH 9 0
BBX 10 24 -1 0
BITMAP
00C0
01C0
0180
0180
0380
0300
0300
0700
0600
0600
0E00
0C00
0C00
1C00
1800
1800
3800
3000
3000
7000
6000
6000
E000
C000
ENDCHAR
STARTCHAR 0030
ENCODING 48
SWIDTH 570 0
DWIDTH 19 0
BBX 16 24 1 0
BITMAP
07E0
0FF8
1E78
381C
700E
700E
700E
E007
E007
E007
E007
E007
E007
E007
E007
E007
E007
7006
700E
700E
381C
1E78
0FF0
07E0
ENDCHAR
STARTCHAR 0031
ENCODING 49
SWIDTH 570 0
DWIDTH 19 0
BBX 7 24 4 0
BITMAP
FE
FE
0E
0E
0E
0E
0E
0E
0E
0E
0E
0E
0E
0E
0E
0E
0E
0E
0E
0E
0E
0E
0E
0E
ENDCHAR
STARTCHAR 0032
ENCODING 50
SWIDTH 570 0
DWIDTH 19 0
BBX 14 24 2 0
BITMAP
0FC0
3FF0
3C78
7038
F01C
E01C
E01C
E01C
001C
0018
0038
0070
00F0
01E0
03C0
0380
0700
0E00
1C00
3800
7800
F000
FFFC
FFFC
ENDCHAR
STARTCHAR 0033
ENCODING 51
SWIDTH 570 0
DWIDTH 19 0
BBX 16 24 1 0
BITMAP
07E0
1FF8
3C3C
381C
700E
700E
700E
000E
001C
0038
03F0
03F0
007C
000E
000E
0007
0007
E007
E007
7007
700E
7C3C
3FF8
0FE0
ENDCHAR
STARTCHAR 0034
ENCODING 52
SWIDTH 570 0
DWIDTH 19 0
BBX 16 24 1 0
BITMAP
0078
0078
00F8
01F8
01B8
03B8
0338
0738
0638
0E38
0C38
1C38
1838
3838
3038
7038
E038
FFFF
FFFF
0038
0038
0038
0038
0038
ENDCHAR
STARTCHAR 0035
ENCODING 53
SWIDTH 570 0
DWIDTH 19 0
BBX 15 24 2 0
BITMAP
3FF8
3FF8
3000
3000
3000
3000
7000
7000
77E0
6FF8
783C
701C
700C
600E
000E
000E
000E
E00E
E00E
E01C
701C
7878
3FF0
0FC0
ENDCHAR
STARTCHAR 0036
ENCODING 54
SWIDTH 570 0
DWIDTH 19 0
BBX 16 24 1 0
BITMAP
03F0
0FFC
1E7E
380E
380F
7007
7007
6000
6000
E7F0
EFFC
FC1E
F80E
F007
F007
F007
E007
7007
7007
700E
380E
3F7C
1FF8
07E0
ENDCHAR
STARTCHAR 0037
ENCODING 55
SWIDTH 570 0
DWIDTH 19 0
BBX 14 24 2 0
BITMAP
FFFC
FFFC
001C
001C
0018
0038
0038
0030
0070
0060
00E0
00E0
00C0
01C0
01C0
0180
0380
0380
0300
0700
0700
0E00
0E00
0E00
ENDCHAR
STARTCHAR 0038
ENCODING 56
SWIDTH 570 0
DWIDTH 19 0
BBX 16 24 1 0
BITMAP
07E0
1FF8
3C3C
381C
700E
700E
700E
700E
381C
3C3C
0FF0
1FF8
3C3C
700E
700F
E007
E007
E007
E007
7007
780E
3C3C
1FF8
07E0
ENDCHAR
STARTCHAR 0039
ENCODING 57
SWIDTH 570 0
DWIDTH 19 0
BBX 16 24 1 0
BITMAP
07E0
1FF8
3E7C
781C
700E
600E
E006
E007
E007
E007
E00F
700F
781F
3C7F
1FF7
07C7
0007
0006
E00E
F00E
701C
7E78
3FF0
0FC0
ENDCHAR
STARTCHAR 003A
ENCODING 58
SWIDTH 270 0
DWIDTH 9 0
BBX 3 15 3 0
BITMAP
E0
E0
E0
00
00
00
00
00
00
00
00
00
E0
E0
E0
ENDCHAR
STARTCHAR 003B
ENCODING 59
SWIDTH 270 0
DWIDTH 9 0
BBX 6 19 0 -4
BITMAP
1C
1C
1C
00
00
00
00
00
00
00
00
00
1C
18
38
30
70
60
C0
ENDCHAR
STARTCHAR 003C
ENCODING 60
SWIDTH 600 0
DWIDTH 20 0
BBX 17 17 2 -1
BITMAP
000080
000380
000F80
003E00
01F800
07E000
1F0000
7C0000
F00000
F80000
3E0000
0FC000
03F000
007C00
001F80
000780
000180
ENDCHAR
STARTCHAR 003D
ENCODING 61
SWIDTH 600 0
DWIDTH 20 0
BBX 17 8 2 5
BITMAP
FFFF80
FFFF80
000000
000000
000000
000000
FFFF80
FFFF80
ENDCHAR
STARTCHAR 003E
ENCODING 62
SWIDTH 600 0
DWIDTH 20 0
BBX 17 17 2 1
BITMAP
800000
F00000
FC0000
3F0000
07C000
01F800
007E00
000F80
000380
001F80
007E00
01F000
0FC000
3F0000
FC0000
E00000
800000
ENDCHAR
STARTCHAR 003F
ENCODING 63
SWIDTH 450 0
DWIDTH 15 0
BBX 13 24 1 0
BITMAP
0FC0
3FE0
78F0
7038
E038
E038
E038
E038
0038
0070
00F0
03E0
0380
0700
0700
0700
0700
0700
0000
0000
0000
0700
0700
0700
ENDCHAR
STARTCHAR 0040
ENCODING 64
SWIDTH 810 0
DWIDTH 27 0
BBX 25 24 1 0
BITMAP
007F8000
01FFE000
0780F800
0E003C00
1C000E00
383E0700
387F7700
70E3E380
71C1E380
E381E380
E380C380
E301C380
E701C300
E7018700
E7038700
77038E00
738F9C00
3BFFF800
38F3E700
1C000E00
0F001C00
07C0F800
01FFE000
007F0000
ENDCHAR
STARTCHAR 0041
ENCODING 65
SWIDTH 510 0
DWIDTH 17 0
BBX 16 24 0 0
BITMAP
03C0
03C0
03C0
07E0
06E0
0660
0660
0E70
0C70
0C30
0C30
1C38
1838
1818
3818
3FFC
3FFC
300C
700E
600E
6006
6006
E007
C007
ENDCHAR
STARTCHAR 0042
ENCODING 66
SWIDTH 570 0
DWIDTH 19 0
BBX 15 24 2 0
BITMAP
FFC0
FFF0
E078
E03C
E01C
E01C
E01C
E01C
E01C
E038
E078
FFE0
FFF8
E03C
E01C
E00E
E00E
E00E
E00E
E00E
E01C
E03C
FFF8
FFE0
ENDCHAR
STARTCHAR 0043
ENCODING 67
SWIDTH 570 0
DWIDTH 19 0
BBX 16 24 1 0
BITMAP
03E0
0FF8
1E3C
381E
700E
7007
6007
E007
E007
E000
E000
E000
E000
E000
E000
E000
E007
7007
7007
700E
380E
1E3C
0FF8
07E0
ENDCHAR
STARTCHAR 0044
ENCODING 68
SWIDTH 600 0
DWIDTH 20 0
BBX 17 24 2 0
BITMAP
FFE000
FFF800
E03C00
E01E00
E00E00
E00700
E00700
E00380
E00380
E00380
E00380
E00380
E00380
E00380
E00380
E00380
E00380
E00700
E00700
E00E00
E00E00
E03C00
FFF800
FFE000
ENDCHAR
STARTCHAR 0045
ENCODING 69
SWIDTH 510 0
DWIDTH 17 0
BBX 12 24 2 0
BITMAP
FFF0
FFF0
E000
E000
E000
E000
E000
E000
E000
E000
E000
FFF0
FFF0
E000
E000
E000
E000
E000
E000
E000
E000
E000
FFF0
FFF0
ENDCHAR
STARTCHAR 0046
ENCODING 70
SWIDTH 450 0
DWIDTH 15 0
BBX 11 24 2 0
BITMAP
FFE0
FFE0
E000
E000
E000
E000
E000
E000
E000
E000
E000
FFE0
FFE0
E000
E000
E000
E000
E000
E000
E000
E000
E000
E000
E000
ENDCHAR
STARTCHAR 0047
ENCODING 71
SWIDTH 600 0
DWIDTH 20 0
BBX 18 24 1 0
BITMAP
03F000
0FFC00
1E1E00
380700
700700
700380
600380
E00380
E00000
E00000
E00000
E00000
E1FFC0
E1FFC0
E001C0
E001C0
6001C0
7001C0
700380
380380
380700
1E0F00
0FFC00
03F000
ENDCHAR
STARTCHAR 0048
ENCODING 72
SWIDTH 600 0
DWIDTH 20 0
BBX 16 24 2 0
BITMAP
E007
E007
E007
E007
E007
E007
E007
E007
E007
E007
E007
FFFF
FFFF
E007
E007
E007
E007
E007
E007
E007
E007
E007
E007
E007
ENDCHAR
STARTCHAR 0049
ENCODING 73
SWIDTH 210 0
DWIDTH 7 0
BBX 3 24 2 0
BITMAP
E0
E0
E0
E0
E0
E0
E0
E0
E0
E0
E0
E0
E0
E0
E0
E0
E0
E0
E0
E0
E0
E0
E0
E0
ENDCHAR
STARTCHAR 004A
ENCODING 74
SWIDTH 450 0
DWIDTH 15 0
BBX 13 24 0 0
BITMAP
0038
0038
0038
0038
0038
0038
0038
0038
0038
0038
0038
0038
0038
0038
0038
0038
0038
0038
E038
E038
7070
78F0
3FE0
1F80
ENDCHAR
STARTCHAR 004B
ENCODING 75
SWIDTH 570 0
DWIDTH 19 0
BBX 16 24 2 0
BITMAP
E01C
E01C
E038
E070
E070
E0E0
E1C0
E180
E380
E780
E780
EDC0
FDC0
F8E0
F0E0
F070
E070
E038
E038
E01C
E01C
E00E
E00E
E007
ENDCHAR
STARTCHAR 004C
ENCODING 76
SWIDTH 450 0
DWIDTH 15 0
BBX 12 24 2 0
BITMAP
E000
E000
E000
E000
E000
E000
E000
E000
E000
E000
E000
E000
E000
E000
E000
E000
E000
E000
E000
E000
E000
E000
FFF0
FFF0
ENDCHAR
STARTCHAR 004D
ENCODING 77
SWIDTH 720 0
DWIDTH 24 0
BBX 20 24 2 0
BITMAP
F000F0
F801F0
F801F0
F801F0
FC01F0
FC03F0
EC0370
EE0370
EE0770
E60670
E60670
E70670
E30E70
E30C70
E38C70
E38C70
E19870
E1D870
E1D870
E0F870
E0F070
E0F070
E07070
E06070
ENDCHAR
STARTCHAR 004E
ENCODING 78
SWIDTH 600 0
DWIDTH 20 0
BBX 16 24 2 0
BITMAP
E007
F007
F807
F807
FC07
FC07
EE07
EE07
E707
E707
E387
E187
E1C7
E0C7
E0E7
E077
E077
E03F
E03F
E01F
E01F
E00F
E00F
E007
ENDCHAR
STARTCHAR 004F
ENCODING 79
SWIDTH 600 0
DWIDTH 20 0
BBX 18 24 1 0
BITMAP
03F000
0FFC00
1E1E00
380700
300380
700380
700380
6001C0
E001C0
E001C0
E001C0
E001C0
E001C0
E001C0
E001C0
E001C0
E001C0
700380
700380
380380
380700
1E1E00
0FFC00
03F000
ENDCHAR
STARTCHAR 0050
ENCODING 80
SWIDTH 570 0
DWIDTH 19 0
BBX 15 24 2 0
BITMAP
FFE0
FFF8
E03C
E01C
E00E
E00E
E00E
E00E
E00E
E00E
E01C
E03C
FFF8
FFE0
E000
E000
E000
E000
E000
E000
E000
E000
E000
E000
ENDCHAR
STARTCHAR 0051
ENCODING 81
SWIDTH 600 0
DWIDTH 20 0
BBX 19 24 1 0
BITMAP
03F000
0FFC00
1E1E00
380700
380780
700380
700380
6001C0
E001C0
E001C0
E001C0
E001C0
E001C0
E001C0
E001C0
E001C0
FF81C0
7FE180
70F380
707B80
383F00
1E1F00
0FFFE0
03F3E0
ENDCHAR
STARTCHAR 0052
ENCODING 82
SWIDTH 570 0
DWIDTH 19 0
BBX 15 24 2 0
BITMAP
FFE0
FFF8
E07C
E01C
E00E
E00E
E00E
E00E
E00E
E00E
E01C
E03C
E7F8
E3E0
E180
E1C0
E0E0
E0E0
E070
E038
E038
E01C
E01E
E00E
ENDCHAR
STARTCHAR 0053
ENCODING 83
SWIDTH 510 0
DWIDTH 17 0
BBX 15 24 1 0
BITMAP
07C0
1FF0
3C78
3838
701C
701C
701C
7000
7800
3C00
1F80
0FE0
03F8
007C
001C
001E
000E
E00E
E00E
E00E
701C
783C
3FF8
0FE0
ENDCHAR
STARTCHAR 0054
ENCODING 84
SWIDTH 450 0
DWIDTH 15 0
BBX 15 24 0 0
BITMAP
FFFE
FFFE
0380
0380
0380
0380
0380
0380
0380
0380
0380
0380
0380
0380
0380
0380
0380
0380
0380
0380
0380
0380
0380
0380
ENDCHAR
STARTCHAR 0055
ENCODING 85
SWIDTH 570 0
DWIDTH 19 0
BBX 15 24 2 0
BITMAP
E00E
E00E
E00E
E00E
E00E
E00E
E00E
E00E
E00E
E00E
E00E
E00E
E00E
E00E
E00E
E00E
E00E
E00E
E00E
E00E
701C
787C
3FF8
0FE0
ENDCHAR
STARTCHAR 0056
ENCODING 86
SWIDTH 510 0
DWIDTH 17 0
BBX 16 24 0 0
BITMAP
E003
E003
6007
6007
7006
3006
300E
380E
380C
180C
181C
1C1C
0C18
0C18
0C38
0E30
0630
0630
0770
0360
0360
0360
03E0
01C0
ENDCHAR
STARTCHAR 0057
ENCODING 87
SWIDTH 840 0
DWIDTH 28 0
BBX 27 24 0 0
BITMAP
E00E00E0
600E00E0
601F00C0
701F00C0
701B01C0
301B01C0
301B0180
381B8180
38398380
18398300
18318300
1C318300
0C31C700
0C31C600
0C70C600
0E60C600
0660CC00
0660CC00
0760EC00
07606C00
03E07800
03C07800
03C07800
01C07800
ENDCHAR
STARTCHAR 0058
ENCODING 88
SWIDTH 510 0
DWIDTH 17 0
BBX 16 24 0 0
BITMAP
700E
301C
381C
1818
1C38
0C30
0E70
0660
07E0
07C0
03C0
0380
03C0
07E0
07E0
0E70
0E70
1C38
1C18
381C
380C
700E
7006
E007
ENDCHAR
STARTCHAR 0059
ENCODING 89
SWIDTH 510 0
DWIDTH 17 0
BBX 16 24 0 0
BITMAP
E003
7007
7006
380E
380C
1C1C
1C1C
0E38
0E38
0670
0770
0360
03E0
01C0
01C0
01C0
01C0
01C0
01C0
01C0
01C0
01C0
01C0
01C0
ENDCHAR
STARTCHAR 005A
ENCODING 90
SWIDTH 450 0
DWIDTH 15 0
BBX 13 24 1 0
BITMAP
FFF8
FFF8
0038
0070
0070
00E0
00E0
01C0
01C0
0380
0380
0700
0700
0E00
0E00
1C00
1C00
3800
3800
7000
7000
E000
FFF8
FFF8
ENDCHAR
STARTCHAR 005B
ENCODING 91
SWIDTH 390 0
DWIDTH 13 0
BBX 9 30 3 -6
BITMAP
FF80
FF80
E000
E000
E000
E000
E000
E000
E000
E000
E000
E000
E000
E000
E000
E000
E000
E000
E000
E000
E000
E000
E000
E000
E000
E000
E000
E000
FF80
FF80
ENDCHAR
STARTCHAR 005C
ENCODING 92
SWIDTH 270 0
DWIDTH 9 0
BBX 10 24 -1 0
BITMAP
E000
E000
6000
7000
7000
3000
3800
3800
1800
1C00
0C00
0C00
0E00
0600
0600
0700
0300
0300
0380
0180
0180
01C0
00C0
00C0
ENDCHAR
STARTCHAR 005D
ENCODING 93
SWIDTH 390 0
DWIDTH 13 0
BBX 9 30 1 -6
BITMAP
FF80
FF80
0380
0380
0380
0380
0380
0380
0380
0380
0380
0380
0380
0380
0380
0380
0380
0380
0380
0380
0380
0380
0380
0380
0380
0380
0380
0380
FF80
FF80
ENDCHAR
STARTCHAR 005E
ENCODING 94
SWIDTH 600 0
DWIDTH 20 0
BBX 16 14 2 9
BITMAP
0380
03C0
07C0
07E0
0660
0E70
0C30
1C38
1818
381C
300C
700E
600E
E007
ENDCHAR
STARTCHAR 005F
ENCODING 95
SWIDTH 510 0
DWIDTH 17 0
BBX 16 2 0 -4
BITMAP
FFFF
FFFF
ENDCHAR
STARTCHAR 0060
ENCODING 96
SWIDTH 210 0
DWIDTH 7 0
BBX 6 5 0 20
BITMAP
E0
60
30
18
0C
ENDCHAR
STARTCHAR 0061
ENCODING 97
SWIDTH 510 0
DWIDTH 17 0
BBX 14 18 1 0
BITMAP
0F9C
1FDC
3C7C
703C
701C
601C
E01C
E01C
E01C
E01C
E01C
E01C
601C
701C
703C
3C7C
1FDC
0F9C
ENDCHAR
STARTCHAR 0062
ENCODING 98
SWIDTH 510 0
DWIDTH 17 0
BBX 14 24 2 0
BITMAP
E000
E000
E000
E000
E000
E000
E7C0
FFE0
F8F0
F038
E038
E018
E01C
E01C
E01C
E01C
E01C
E01C
E018
F038
F038
F8F0
FFE0
E7C0
ENDCHAR
STARTCHAR 0063
ENCODING 99
SWIDTH 450 0
DWIDTH 15 0
BBX 13 18 1 0
BITMAP
0FC0
1FE0
3CF0
7070
7038
6038
E038
E000
E000
E000
E000
E000
E038
7038
7070
3CF0
3FE0
0F80
ENDCHAR
STARTCHAR 0064
ENCODING 100
SWIDTH 510 0
DWIDTH 17 0
BBX 14 24 1 0
BITMAP
001C
001C
001C
001C
001C
001C
0F9C
1FDC
3C7C
703C
703C
601C
E01C
E01C
E01C
E01C
E01C
E01C
601C
703C
703C
3C7C
1FDC
0F9C
ENDCHAR
STARTCHAR 0065
ENCODING 101
SWIDTH 450 0
DWIDTH 15 0
BBX 13 18 1 0
BITMAP
0F80
1FE0
38F0
7070
7038
E038
E038
E038
FFF8
FFF8
E000
E000
E038
7038
7070
3CF0
1FE0
0F80
ENDCHAR
STARTCHAR 0066
ENCODING 102
SWIDTH 210 0
DWIDTH 7 0
BBX 8 24 0 0
BITMAP
0F
1F
38
38
38
38
FF
FF
38
38
38
38
38
38
38
38
38
38
38
38
38
38
38
38
ENDCHAR
STARTCHAR 0067
ENCODING 103
SWIDTH 510 0
DWIDTH 17 0
BBX 14 24 1 -6
BITMAP
0F9C
1FDC
3C7C
703C
703C
601C
E01C
E01C
E01C
E01C
E01C
E01C
601C
703C
783C
3C7C
1FDC
0F9C
001C
701C
701C
3C78
3FF0
0FE0
ENDCHAR
STARTCHAR 0068
ENCODING 104
SWIDTH 510 0
DWIDTH 17 0
BBX 13 24 2 0
BITMAP
E000
E000
E000
E000
E000
E000
E7C0
FFE0
F8F0
F078
E038
E038
E038
E038
E038
E038
E038
E038
E038
E038
E038
E038
E038
E038
ENDCHAR
STARTCHAR 0069
ENCODING 105
SWIDTH 210 0
DWIDTH 7 0
BBX 3 24 2 0
BITMAP
E0
E0
E0
00
00
00
E0
E0
E0
E0
E0
E0
E0
E0
E0
E0
E0
E0
E0
E0
E0
E0
E0
E0
ENDCHAR
STARTCHAR 006A
ENCODING 106
SWIDTH 210 0
DWIDTH 7 0
BBX 7 31 -1 -6
BITMAP
0C
0C
0C
00
00
00
00
0E
0E
0E
0E
0E
0E
0E
0E
0E
0E
0E
0E
0E
0E
0E
0E
0E
0E
0E
0E
0E
1E
FC
F8
ENDCHAR
STARTCHAR 006B
ENCODING 107
SWIDTH 450 0
DWIDTH 15 0
BBX 12 24 2 0
BITMAP
E000
E000
E000
E000
E000
E000
E070
E0E0
E1C0
E180
E380
E700
E600
EF00
FB00
FB80
F180
E1C0
E0C0
E0E0
E060
E070
E070
E030
ENDCHAR
STARTCHAR 006C
ENCODING 108
SWIDTH 210 0
DWIDTH 7 0
BBX 3 24 2 0
BITMAP
E0
E0
E0
E0
E0
E0
E0
E0
E0
E0
E0
E0
E0
E0
E0
E0
E0
E0
E0
E0
E0
E0
E0
E0
ENDCHAR
STARTCHAR 006D
ENCODING 109
SWIDTH 780 0
DWIDTH 26 0
BBX 22 18 2 0
BITMAP
E783E0
EFEFF8
F8FC78
F0783C
E0701C
E0701C
E0701C
E0701C
E0701C
E0701C
E0701C
E0701C
E0701C
E0701C
E0701C
E0701C
E0701C
E0701C
ENDCHAR
STARTCHAR 006E
ENCODING 110
SWIDTH 510 0
DWIDTH 17 0
BBX 13 18 2 0
BITMAP
E7C0
EFE0
F8F0
F078
E038
E038
E038
E038
E038
E038
E038
E038
E038
E038
E038
E038
E038
E038
ENDCHAR
STARTCHAR 006F
ENCODING 111
SWIDTH 510 0
DWIDTH 17 0
BBX 15 18 1 0
BITMAP
07C0
1FF0
3C78
783C
701C
700C
E00E
E00E
E00E
E00E
E00E
E00E
700C
701C
783C
3C78
1FF0
07C0
ENDCHAR
STARTCHAR 0070
ENCODING 112
SWIDTH 510 0
DWIDTH 17 0
BBX 14 24 2 -6
BITMAP
E7C0
FFE0
F8F0
F038
E038
E018
E01C
E01C
E01C
E01C
E01C
E01C
E018
F038
F038
F8F0
FFE0
E7C0
E000
E000
E000
E000
E000
E000
ENDCHAR
STARTCHAR 0071
ENCODING 113
SWIDTH 510 0
DWIDTH 17 0
BBX 14 24 1 -6
BITMAP
0F9C
1FFC
3C7C
703C
703C
601C
E01C
E01C
E01C
E01C
E01C
E01C
601C
703C
703C
3C7C
1FDC
0F9C
001C
001C
001C
001C
001C
001C
ENDCHAR
STARTCHAR 0072
ENCODING 114
SWIDTH 270 0
DWIDTH 9 0
BBX 7 18 2 0
BITMAP
E6
FE
FC
F0
E0
E0
E0
E0
E0
E0
E0
E0
E0
E0
E0
E0
E0
E0
ENDCHAR
STARTCHAR 0073
ENCODING 115
SWIDTH 450 0
DWIDTH 15 0
BBX 13 18 1 0
BITMAP
0FC0
3FE0
38F0
7038
7038
7000
7800
3E00
1FC0
07F0
00F8
0038
0038
E038
F038
7870
3FE0
0FC0
ENDCHAR
STARTCHAR 0074
ENCODING 116
SWIDTH 210 0
DWIDTH 7 0
BBX 8 24 0 0
BITMAP
38
38
38
38
38
38
FF
FF
38
38
38
38
38
38
38
38
38
38
38
38
38
38
38
38
ENDCHAR
STARTCHAR 0075
ENCODING 117
SWIDTH 510 0
DWIDTH 17 0
BBX 13 18 2 0
BITMAP
E038
E038
E038
E038
E038
E038
E038
E038
E038
E038
E038
E038
E038
E038
E078
78F8
7FB8
1F38
ENDCHAR
STARTCHAR 0076
ENCODING 118
SWIDTH 450 0
DWIDTH 15 0
BBX 14 18 0 0
BITMAP
E01C
E01C
6018
7038
7038
3030
3870
3870
3860
1860
1CE0
1CC0
0CC0
0FC0
0FC0
0780
0780
0780
ENDCHAR
STARTCHAR 0077
ENCODING 119
SWIDTH 660 0
DWIDTH 22 0
BBX 22 18 0 0
BITMAP
E0381C
E0781C
607818
607818
707C38
306C30
30CC30
38CC30
38CC70
18CE60
18C660
1D8660
0D86E0
0D86C0
0D87C0
0F83C0
070380
070380
ENDCHAR
STARTCHAR 0078
ENCODING 120
SWIDTH 450 0
DWIDTH 15 0
BBX 14 18 0 0
BITMAP
7038
3038
3870
1860
1CE0
0EC0
0FC0
0780
0300
0780
07C0
0CC0
1CE0
1860
3870
3038
7038
E01C
ENDCHAR
STARTCHAR 0079
ENCODING 121
SWIDTH 450 0
DWIDTH 15 0
BBX 14 24 0 -6
BITMAP
E01C
E01C
6018
7038
7038
3030
3070
3870
1860
1860
1CE0
0CC0
0CC0
0DC0
0780
0780
0780
0300
0700
0700
0600
0E00
0E00
0C00
ENDCHAR
STARTCHAR 007A
ENCODING 122
SWIDTH 450 0
DWIDTH 15 0
BBX 12 18 1 0
BITMAP
FFF0
FFF0
0070
00E0
00E0
01C0
0380
0380
0700
0E00
0E00
1C00
3800
3800
7000
E000
FFF0
FFF0
ENDCHAR
STARTCHAR 007B
ENCODING 123
SWIDTH 390 0
DWIDTH 13 0
BBX 11 30 1 -6
BITMAP
0FE0
1FE0
3800
3800
3800
3800
3800
3800
3800
3800
3800
3800
3800
7800
F000
F000
7800
3800
3800
3800
3800
3800
3800
3800
3800
3800
3800
3800
1FE0
0FE0
ENDCHAR
STARTCHAR 007C
ENCODING 124
SWIDTH 210 0
DWIDTH 7 0
BBX 3 24 2 0
BITMAP
E0
E0
E0
E0
E0
E0
E0
E0
E0
E0
E0
E0
E0
E0
E0
E0
E0
E0
E0
E0
E0
E0
E0
E0
ENDCHAR
STARTCHAR 007D
ENCODING 125
SWIDTH 390 0
DWIDTH 13 0
BBX 11 30 1 -6
BITMAP
FF00
FF80
0380
0380
0380
0380
0380
0380
0380
0380
0380
0380
0380
03C0
01E0
01E0
03C0
0380
0380
0380
0380
0380
0380
0380
0380
0380
0380
0380
FF80
FF00
ENDCHAR
STARTCHAR 007E
ENCODING 126
SWIDTH 600 0
DWIDTH 20 0
BBX 15 5 2 6
BITMAP
3E00
7F86
E7FE
C1FC
0078
ENDCHAR
STARTCHAR 00A0
ENCODING 160
SWIDTH 270 0
DWIDTH 9 0
BBX 0 0 0 0
BITMAP
ENDCHAR
STARTCHAR 00A1
ENCODING 161
SWIDTH 210 0
DWIDTH 7 0
BBX 3 24 2 -6
BITMAP
E0
E0
E0
00
00
00
E0
E0
E0
E0
E0
E0
E0
E0
E0
E0
E0
E0
E0
E0
E0
E0
E0
E0
ENDCHAR
STARTCHAR 00A2
ENCODING 162
SWIDTH 570 0
DWIDTH 19 0
BBX 14 24 2 0
BITMAP
0300
0300
0300
0FC0
1FE0
38F0
7038
7038
6038
E000
E000
E000
E000
E000
E000
603C
703C
7038
3878
3FF0
0FC0
0300
0300
0300
ENDCHAR
STARTCHAR 00A3
ENCODING 163
SWIDTH 570 0
DWIDTH 19 0
BBX 17 24 0 0
BITMAP
03F000
0FFC00
1F7E00
3C0E00
380700
700700
700700
700000
700000
780000
380000
FFF800
FFF800
0E0000
070000
070000
038380
038380
038380
038380
038700
071F00
7FFE00
7FF800
ENDCHAR
STARTCHAR 00A4
ENCODING 164
SWIDTH 570 0
DWIDTH 19 0
BBX 17 16 1 3
BITMAP
43E100
EFFF80
7E3E00
380E00
700700
E00700
E00380
E00380
E00380
E00380
E00300
700700
780E00
3C1E00
FFFF00
47F300
ENDCHAR
STARTCHAR 00A5
ENCODING 165
SWIDTH 570 0
DWIDTH 19 0
BBX 15 24 2 0
BITMAP
C00E
E00E
E00C
701C
7018
3838
3838
1C70
1C70
FCFE
FEFE
06C0
07C0
0380
FFFE
FFFE
0380
0380
0380
0380
0380
0380
0380
0380
ENDCHAR
STARTCHAR 00A6
ENCODING 166
SWIDTH 210 0
DWIDTH 7 0
BBX 3 24 2 0
BITMAP
E0
E0
E0
E0
E0
E0
E0
E0
E0
00
00
00
00
00
00
E0
E0
E0
E0
E0
E0
E0
E0
E0
ENDCHAR
STARTCHAR 00A7
ENCODING 167
SWIDTH 450 0
DWIDTH 15 0
BBX 13 27 1 -3
BITMAP
0F80
1FC0
38E0
3840
3800
1C00
0E00
3F00
7F80
E3C0
E1E0
E0F0
F070
7038
3838
3C38
1E38
0FF0
07E0
0380
01C0
00E0
00E0
30E0
38E0
1FC0
0700
ENDCHAR
STARTCHAR 00A8
ENCODING 168
SWIDTH 210 0
DWIDTH 7 0
BBX 7 3 0 20
BITMAP
E6
E6
E6
ENDCHAR
STARTCHAR 00A9
ENCODING 169
SWIDTH 810 0
DWIDTH 27 0
BBX 25 24 1 0
BITMAP
007F0000
03FFC000
0781F000
0E007800
1C001C00
387E0E00
70FF8F00
71C1C700
6380C700
E380E380
E7000380
E7000380
E7000380
E7000380
E700E380
6380C700
73C0C700
71E38700
38FF0E00
1C3E1C00
0E003800
0781F000
03FFE000
007F0000
ENDCHAR
STARTCHAR 00AA
ENCODING 170
SWIDTH 300 0
DWIDTH 10 0
BBX 9 11 0 13
BITMAP
1E80
7F80
7180
E180
E180
E180
E180
E180
7180
7F80
1E80
ENDCHAR
STARTCHAR 00AB
ENCODING 171
SWIDTH 450 0
DWIDTH 15 0
BBX 12 12 1 3
BITMAP
0C70
1C60
38C0
31C0
6380
E300
E300
6380
31C0
38C0
1C60
0C70
ENDCHAR
STARTCHAR 00AC
ENCODING 172
SWIDTH 600 0
DWIDTH 20 0
BBX 17 8 2 4
BITMAP
FFFF80
FFFF80
000380
000380
000380
000380
000380
000380
ENDCHAR
STARTCHAR 00AD
ENCODING 173
SWIDTH 330 0
DWIDTH 11 0
BBX 8 2 1 9
BITMAP
FF
FF
ENDCHAR
STARTCHAR 00AE
ENCODING 174
SWIDTH 810 0
DWIDTH 27 0
BBX 25 24 1 0
BITMAP
007F0000
01FFE000
07C1F000
0E003800
1C001C00
39FF8E00
71FFCF00
71C1E700
61C0E700
E1C0E380
E1C1E380
E1FFC380
E1FF0380
E1C60380
E1C70380
61C38700
71C38700
71C1C700
39C0EE00
1C001C00
0E003800
07C0F000
03FFC000
007F0000
ENDCHAR
STARTCHAR 00AF
ENCODING 175
SWIDTH 210 0
DWIDTH 7 0
BBX 10 2 -1 21
BITMAP
FFC0
FFC0
ENDCHAR
STARTCHAR 00B0
ENCODING 176
SWIDTH 390 0
DWIDTH 13 0
BBX 9 9 2 15
BITMAP
3E00
7F00
E380
C180
C180
C180
E380
7F00
3E00
ENDCHAR
STARTCHAR 00B1
ENCODING 177
SWIDTH 600 0
DWIDTH 20 0
BBX 17 16 1 1
BITMAP
01C000
01C000
01C000
01C000
01C000
FFFF80
FFFF80
01C000
01C000
01C000
01C000
01C000
000000
000000
FFFF80
FFFF80
ENDCHAR
STARTCHAR 00B2
ENCODING 178
SWIDTH 330 0
DWIDTH 11 0
BBX 10 14 1 10
BITMAP
3F00
7F80
E1C0
E1C0
E1C0
01C0
0380
0700
0E00
1C00
3800
7000
FF80
FF80
ENDCHAR
STARTCHAR 00B3
ENCODING 179
SWIDTH 330 0
DWIDTH 11 0
BBX 12 14 0 10
BITMAP
1F80
3FC0
70E0
70E0
00E0
01C0
07C0
07C0
00E0
0070
E070
F0F0
7FE0
1F80
ENDCHAR
STARTCHAR 00B4
ENCODING 180
SWIDTH 210 0
DWIDTH 7 0
BBX 6 5 2 20
BITMAP
1C
38
30
60
C0
ENDCHAR
STARTCHAR 00B5
ENCODING 181
SWIDTH 510 0
DWIDTH 17 0
BBX 13 24 2 -6
BITMAP
E038
E038
E038
E038
E038
E038
E038
E038
E038
E038
E038
E038
E038
E038
E078
F8F8
FFB8
FF38
E000
E000
E000
E000
E000
E000
ENDCHAR
STARTCHAR 00B6
ENCODING 182
SWIDTH 600 0
DWIDTH 20 0
BBX 16 27 1 -3
BITMAP
07FF
1FFF
3FC7
7FC7
7FC7
FFC7
FFC7
FFC7
7FC7
7FC7
3FC7
1FC7
01C7
01C7
01C7
01C7
01C7
01C7
01C7
01C7
01C7
01C7
01C7
01C7
01C7
01C7
01C7
ENDCHAR
STARTCHAR 00B7
ENCODING 183
SWIDTH 270 0
DWIDTH 9 0
BBX 3 3 3 7
BITMAP
E0
E0
E0
ENDCHAR
STARTCHAR 00B8
ENCODING 184
SWIDTH 210 0
DWIDTH 7 0
BBX 7 6 1 -5
BITMAP
30
20
7C
0E
FE
F8
ENDCHAR
STARTCHAR 00B9
ENCODING 185
SWIDTH 330 0
DWIDTH 11 0
BBX 5 14 2 10
BITMAP
F8
F8
38
38
38
38
38
38
38
38
38
38
38
38
ENDCHAR
STARTCHAR 00BA
ENCODING 186
SWIDTH 300 0
DWIDTH 10 0
BBX 10 11 0 13
BITMAP
1F00
7F80
7380
E1C0
E1C0
E1C0
E1C0
E1C0
7380
7F80
1E00
ENDCHAR
STARTCHAR 00BB
ENCODING 187
SWIDTH 450 0
DWIDTH 15 0
BBX 12 12 1 3
BITMAP
E300
6380
31C0
38C0
1C60
0C70
0C70
1C60
38C0
31C0
6380
E300
ENDCHAR
STARTCHAR 00BC
ENCODING 188
SWIDTH 840 0
DWIDTH 28 0
BBX 24 24 3 0
BITMAP
F800C0
F801C0
380180
380380
380300
380700
380600
380E00
380C00
381C00
38383C
38383C
38707C
3870FC
00E0DC
00E19C
01C39C
01C31C
03871C
0387FF
0707FF
07001C
0E001C
0E001C
ENDCHAR
STARTCHAR 00BD
ENCODING 189
SWIDTH 840 0
DWIDTH 28 0
BBX 24 24 3 0
BITMAP
F801C0
F80380
380380
380700
380600
380E00
380C00
381C00
381800
3838F8
3831FE
38738F
38E707
38E707
01C007
01C00E
03800E
03801C
070038
070070
0E00E0
0E01C0
1C03FE
1C03FE
ENDCHAR
STARTCHAR 00BE
ENCODING 190
SWIDTH 840 0
DWIDTH 28 0
BBX 26 24 1 0
BITMAP
1F001800
3F803800
71C03000
71C07000
01C0E000
03C0E000
0781C000
0781C000
01C38000
00E38000
00E70F00
E0E70F00
7FCE1F00
3F8E3F00
001C3700
00186700
00386700
0030C700
0071C700
0061FFC0
00E1FFC0
00C00700
01C00700
01800700
ENDCHAR
STARTCHAR 00BF
ENCODING 191
SWIDTH 450 0
DWIDTH 15 0
BBX 13 24 1 -7
BITMAP
0380
0380
0380
0000
0000
0000
0380
0380
0380
0380
0780
0F00
1E00
3C00
7800
7000
E038
E038
E038
E038
7038
7870
3FE0
0FC0
ENDCHAR
STARTCHAR 00C0
ENCODING 192
SWIDTH 510 0
DWIDTH 17 0
BBX 16 30 0 0
BITMAP
0E00
0700
0300
0180
00C0
0000
03C0
03C0
03C0
07E0
06E0
0660
0660
0E70
0C70
0C30
0C30
1C38
1838
1818
3818
3FFC
3FFC
300C
700E
600E
6006
6006
E007
C007
ENDCHAR
STARTCHAR 00C1
ENCODING 193
SWIDTH 510 0
DWIDTH 17 0
BBX 16 30 0 0
BITMAP
0070
00E0
00C0
0180
0300
0000
03C0
03C0
03C0
07E0
0660
0660
0660
0E70
0C70
0C30
0C30
1C38
1838
1818
3818
3FFC
3FFC
300C
700E
600E
6006
6006
E007
C007
ENDCHAR
STARTCHAR 00C2
ENCODING 194
SWIDTH 510 0
DWIDTH 17 0
BBX 16 30 0 0
BITMAP
01C0
03C0
0660
0C30
1C38
0000
03C0
03C0
03C0
07E0
0660
0660
0660
0E70
0C30
0C30
0C38
1C38
1818
1818
181C
3FFC
3FFC
300C
700E
6006
6006
6006
C007
C003
ENDCHAR
STARTCHAR 00C3
ENCODING 195
SWIDTH 510 0
DWIDTH 17 0
BBX 16 28 0 0
BITMAP
0708
09F8
1070
0000
03C0
03C0
03C0
07E0
06E0
0660
0660
0E70
0C70
0C30
0C30
1C38
1838
1818
3818
3FFC
3FFC
300C
700E
600E
6006
6006
E007
C007
ENDCHAR
STARTCHAR 00C4
ENCODING 196
SWIDTH 510 0
DWIDTH 17 0
BBX 16 28 0 0
BITMAP
0E60
0E60
0E60
0000
0180
03C0
03C0
03C0
06E0
0660
0660
0660
0C70
0C70
0C30
0C30
1838
1838
1838
3FFC
3FFC
301C
200C
600E
600E
6006
C007
C007
ENDCHAR
STARTCHAR 00C5
ENCODING 197
SWIDTH 510 0
DWIDTH 17 0
BBX 16 32 0 0
BITMAP
03C0
0660
0420
0420
0420
0660
03C0
0000
03C0
03C0
03C0
07C0
06E0
0660
0660
0E70
0C70
0C30
0C30
1C38
1838
1818
1818
3FFC
3FFC
300C
700E
700E
600E
6006
E007
C007
ENDCHAR
STARTCHAR 00C6
ENCODING 198
SWIDTH 840 0
DWIDTH 28 0
BBX 25 24 0 0
BITMAP
000FFF80
001FFF80
001F0000
003F0000
00370000
00770000
00670000
00E70000
00C70000
01C70000
01870000
0387FF80
0307FF80
07070000
0E070000
0FFF0000
1FFF0000
1C070000
38070000
30070000
70070000
60070000
E007FF80
C007FF80
ENDCHAR
STARTCHAR 00C7
ENCODING 199
SWIDTH 570 0
DWIDTH 19 0
BBX 16 30 1 -6
BITMAP
03E0
0FF8
1C3C
381E
700E
7007
6007
E007
E007
E000
E000
E000
E000
E000
E000
E000
E007
7007
7007
700E
380E
1E3C
0FF8
07E0
0080
0100
03E0
0070
06F0
07C0
ENDCHAR
STARTCHAR 00C8
ENCODING 200
SWIDTH 510 0
DWIDTH 17 0
BBX 12 30 2 0
BITMAP
1800
1C00
0C00
0600
0300
0000
FFF0
FFF0
E000
E000
E000
E000
E000
E000
E000
E000
E000
FFF0
FFF0
E000
E000
E000
E000
E000
E000
E000
E000
E000
FFF0
FFF0
ENDCHAR
STARTCHAR 00C9
ENCODING 201
SWIDTH 510 0
DWIDTH 17 0
BBX 12 30 2 0
BITMAP
01C0
0180
0300
0600
0C00
0000
FFF0
FFF0
E000
E000
E000
E000
E000
E000
E000
E000
E000
FFF0
FFF0
E000
E000
E000
E000
E000
E000
E000
E000
E000
FFF0
FFF0
ENDCHAR
STARTCHAR 00CA
ENCODING 202
SWIDTH 510 0
DWIDTH 17 0
BBX 12 30 2 0
BITMAP
0700
0F00
1980
38C0
70E0
0000
FFF0
FFF0
E000
E000
E000
E000
E000
E000
E000
E000
E000
FFF0
FFF0
E000
E000
E000
E000
E000
E000
E000
E000
E000
FFF0
FFF0
ENDCHAR
STARTCHAR 00CB
ENCODING 203
SWIDTH 510 0
DWIDTH 17 0
BBX 12 28 2 0
BITMAP
18C0
18C0
18C0
0000
FFF0
FFF0
E000
E000
E000
E000
E000
E000
E000
E000
E000
FFF0
FFF0
E000
E000
E000
E000
E000
E000
E000
E000
E000
FFF0
FFF0
ENDCHAR
STARTCHAR 00CC
ENCODING 204
SWIDTH 210 0
DWIDTH 7 0
BBX 5 30 1 0
BITMAP
C0
60
20
30
18
00
38
38
38
38
38
38
38
38
38
38
38
38
38
38
38
38
38
38
38
38
38
38
38
38
ENDCHAR
STARTCHAR 00CD
ENCODING 205
SWIDTH 210 0
DWIDTH 7 0
BBX 5 30 3 0
BITMAP
18
30
60
C0
80
00
E0
E0
E0
E0
E0
E0
E0
E0
E0
E0
E0
E0
E0
E0
E0
E0
E0
E0
E0
E0
E0
E0
E0
E0
ENDCHAR
STARTCHAR 00CE
ENCODING 206
SWIDTH 210 0
DWIDTH 7 0
BBX 10 30 -1 0
BITMAP
0E00
1B00
3300
7180
E0C0
0000
0E00
0E00
0E00
0E00
0E00
0E00
0E00
0E00
0E00
0E00
0E00
0E00
0E00
0E00
0E00
0E00
0E00
0E00
0E00
0E00
0E00
0E00
0E00
0E00
ENDCHAR
STARTCHAR 00CF
ENCODING 207
SWIDTH 210 0
DWIDTH 7 0
BBX 7 28 0 0
BITMAP
E6
E6
E6
00
38
38
38
38
38
38
38
38
38
38
38
38
38
38
38
38
38
38
38
38
38
38
38
38
ENDCHAR
STARTCHAR 00D0
ENCODING 208
SWIDTH 600 0
DWIDTH 20 0
BBX 20 24 -1 0
BITMAP
1FFC00
1FFF00
1C0780
1C03C0
1C01C0
1C00E0
1C00E0
1C0060
1C0070
1C0070
1C0070
FFF070
FFF070
1C0070
1C0070
1C0070
1C0070
1C00E0
1C00E0
1C01C0
1C01C0
1C0780
1FFF00
1FFC00
ENDCHAR
STARTCHAR 00D1
ENCODING 209
SWIDTH 600 0
DWIDTH 20 0
BBX 16 28 2 0
BITMAP
0708
19F8
1070
0000
E007
F007
F807
F807
FC07
FC07
EE07
EE07
E707
E707
E387
E387
E1C7
E0C7
E0E7
E077
E077
E03F
E03F
E01F
E01F
E00F
E00F
E007
ENDCHAR
STARTCHAR 00D2
ENCODING 210
SWIDTH 600 0
DWIDTH 20 0
BBX 18 30 1 0
BITMAP
070000
038000
018000
00C000
006000
000000
03F000
0FFC00
1E1E00
380700
300380
700380
700380
E001C0
E001C0
E001C0
E001C0
E001C0
E001C0
E001C0
E001C0
E001C0
E001C0
700380
700380
380300
380700
1E1E00
0FFC00
03F000
ENDCHAR
STARTCHAR 00D3
ENCODING 211
SWIDTH 600 0
DWIDTH 20 0
BBX 18 30 1 0
BITMAP
003800
007000
006000
00C000
018000
000000
03F000
0FFC00
1E1E00
380700
300380
700380
700380
E001C0
E001C0
E001C0
E001C0
E001C0
E001C0
E001C0
E001C0
E001C0
E001C0
700380
700380
380380
380700
1E1E00
0FFC00
03F000
ENDCHAR
STARTCHAR 00D4
ENCODING 212
SWIDTH 600 0
DWIDTH 20 0
BBX 18 30 1 0
BITMAP
01E000
01E000
033000
061800
0E1C00
000000
03F000
0FFC00
1E1E00
380700
300380
700380
700380
E001C0
E001C0
E001C0
E001C0
E001C0
E001C0
E001C0
E001C0
E001C0
E001C0
700380
700380
380380
380700
1E1E00
0FFC00
03F000
ENDCHAR
STARTCHAR 00D5
ENCODING 213
SWIDTH 600 0
DWIDTH 20 0
BBX 18 28 1 0
BITMAP
038400
0CFC00
083800
000000
03F000
0FFC00
1E1E00
380700
300380
700380
700380
E001C0
E001C0
E001C0
E001C0
E001C0
E001C0
E001C0
E001C0
E001C0
E001C0
700380
700380
380300
380700
1E1E00
0FFC00
03F000
ENDCHAR
STARTCHAR 00D6
ENCODING 214
SWIDTH 600 0
DWIDTH 20 0
BBX 18 28 1 0
BITMAP
031800
031800
031800
000000
03F000
0FFC00
1E1E00
380700
300380
700380
700380
6001C0
E001C0
E001C0
E001C0
E001C0
E001C0
E001C0
E001C0
E001C0
6001C0
700180
700380
380380
3C0700
1E1E00
0FFC00
03F000
ENDCHAR
STARTCHAR 00D7
ENCODING 215
SWIDTH 600 0
DWIDTH 20 0
BBX 17 16 2 1
BITMAP
600300
F00780
780F00
3C1E00
1E3800
0F7000
03E000
01C000
03E000
077000
0E3800
1C1C00
380E00
700700
E00380
400100
ENDCHAR
STARTCHAR 00D8
ENCODING 216
SWIDTH 600 0
DWIDTH 20 0
BBX 18 26 1 -1
BITMAP
0001C0
03F180
0FFF80
1E1F00
380700
300F00
700F80
701B80
6039C0
E031C0
E061C0
E0E1C0
E0C1C0
E1C1C0
E181C0
E301C0
E701C0
E601C0
7C0380
7C0380
380380
380700
7E1E00
6FFC00
E3F000
C00000
ENDCHAR
STARTCHAR 00D9
ENCODING 217
SWIDTH 570 0
DWIDTH 19 0
BBX 15 30 2 0
BITMAP
0C00
0600
0600
0300
0180
0000
E00E
E00E
E00E
E00E
E00E
E00E
E00E
E00E
E00E
E00E
E00E
E00E
E00E
E00E
E00E
E00E
E00E
E00E
E00E
E00E
701C
787C
3FF8
0FE0
ENDCHAR
STARTCHAR 00DA
ENCODING 218
SWIDTH 570 0
DWIDTH 19 0
BBX 15 30 2 0
BITMAP
00E0
00C0
0180
0300
0200
0000
E00E
E00E
E00E
E00E
E00E
E00E
E00E
E00E
E00E
E00E
E00E
E00E
E00E
E00E
E00E
E00E
E00E
E00E
E00E
E00E
701C
787C
3FF8
0FE0
ENDCHAR
STARTCHAR 00DB
ENCODING 219
SWIDTH 570 0
DWIDTH 19 0
BBX 16 30 2 0
BITMAP
03C0
03C0
0660
0C30
1838
0000
E007
E007
E007
E007
E007
E007
E007
E007
E007
E007
E007
E007
E007
E007
E007
E007
E007
E007
E007
E007
700E
7C3E
3FFC
0FF0
ENDCHAR
STARTCHAR 00DC
ENCODING 220
SWIDTH 570 0
DWIDTH 19 0
BBX 15 28 2 0
BITMAP
0C60
0C60
0C60
0000
E00E
E00E
E00E
E00E
E00E
E00E
E00E
E00E
E00E
E00E
E00E
E00E
E00E
E00E
E00E
E00E
E00E
E00E
E00E
E00E
701C
7C3C
3FF8
0FE0
ENDCHAR
STARTCHAR 00DD
ENCODING 221
SWIDTH 510 0
DWIDTH 17 0
BBX 16 30 0 0
BITMAP
0030
0060
00C0
0180
0300
0000
E007
7006
700E
380E
381C
1C1C
1C18
0E38
0E30
0670
0770
0360
03E0
01C0
01C0
01C0
01C0
01C0
01C0
01C0
01C0
01C0
01C0
01C0
ENDCHAR
STARTCHAR 00DE
ENCODING 222
SWIDTH 570 0
DWIDTH 19 0
BBX 15 24 2 0
BITMAP
E000
E000
E000
E000
E000
FFE0
FFF8
E03C
E01C
E00E
E00E
E00E
E00E
E00E
E00E
E01C
E03C
FFF8
FFE0
E000
E000
E000
E000
E000
ENDCHAR
STARTCHAR 00DF
ENCODING 223
SWIDTH 570 0
DWIDTH 19 0
BBX 16 24 2 0
BITMAP
0FC0
3FF0
78F8
7038
E01C
E01C
E01C
E01C
E01C
E038
E0F0
E7C0
E7F8
E07C
E00E
E00E
E007
E007
F007
F007
F80E
EE7E
EFF8
E3E0
ENDCHAR
STARTCHAR 00E0
ENCODING 224
SWIDTH 510 0
DWIDTH 17 0
BBX 14 25 1 0
BITMAP
0C00
0600
0600
0300
0180
0000
0000
0F9C
1FDC
387C
703C
703C
601C
E01C
E01C
E01C
E01C
E01C
E01C
601C
701C
703C
3C7C
1FDC
0F9C
ENDCHAR
STARTCHAR 00E1
ENCODING 225
SWIDTH 510 0
DWIDTH 17 0
BBX 14 25 1 0
BITMAP
00E0
00C0
0180
0300
0200
0000
0000
0F9C
1FDC
3C7C
703C
701C
601C
E01C
E01C
E01C
E01C
E01C
E01C
601C
701C
703C
3C7C
1FDC
0F9C
ENDCHAR
STARTCHAR 00E2
ENCODING 226
SWIDTH 510 0
DWIDTH 17 0
BBX 14 25 1 0
BITMAP
0380
0780
0CC0
1C60
3870
0000
0000
0F9C
1FDC
3C7C
703C
701C
601C
E01C
E01C
E01C
E01C
E01C
E01C
601C
701C
703C
3C7C
1FDC
0F9C
ENDCHAR
STARTCHAR 00E3
ENCODING 227
SWIDTH 510 0
DWIDTH 17 0
BBX 14 24 1 0
BITMAP
0E10
13F0
31E0
0000
0000
0000
0F9C
1FDC
3C7C
703C
701C
601C
E01C
E01C
E01C
E01C
E01C
E01C
601C
701C
703C
3C7C
1FDC
0F9C
ENDCHAR
STARTCHAR 00E4
ENCODING 228
SWIDTH 510 0
DWIDTH 17 0
BBX 14 23 1 0
BITMAP
0C60
0C60
0C60
0000
0000
079C
1FDC
3C7C
703C
701C
601C
E01C
E01C
E01C
E01C
E01C
E01C
601C
701C
783C
3C7C
1FDC
0F9C
ENDCHAR
STARTCHAR 00E5
ENCODING 229
SWIDTH 510 0
DWIDTH 17 0
BBX 14 27 1 0
BITMAP
0780
0CC0
0840
0840
0840
0CC0
0780
0000
0000
0F9C
1FDC
387C
703C
703C
601C
E01C
E01C
E01C
E01C
E01C
E01C
601C
701C
703C
3C7C
1FDC
0F9C
ENDCHAR
STARTCHAR 00E6
ENCODING 230
SWIDTH 780 0
DWIDTH 26 0
BBX 24 18 1 0
BITMAP
0F9CF0
1FDDFC
387F1E
703E0E
703E07
E01C07
E01C07
E01C07
E01FFF
E01FFF
E01C00
E01C00
E01C07
703E07
703E0E
3C7F9E
1FDFFC
0F9CF0
ENDCHAR
STARTCHAR 00E7
ENCODING 231
SWIDTH 450 0
DWIDTH 15 0
BBX 13 24 1 -6
BITMAP
0F80
3FE0
38F0
7070
7038
6038
E038
E000
E000
E000
E000
E000
E038
7038
7070
38F0
3FE0
0F80
0200
0400
0780
01C0
0BC0
0F80
ENDCHAR
STARTCHAR 00E8
ENCODING 232
SWIDTH 450 0
DWIDTH 15 0
BBX 13 25 1 0
BITMAP
1800
0C00
0400
0600
0300
0000
0000
0F80
1FE0
38F0
7070
6030
E038
E038
E038
FFF8
FFF8
E000
E000
E038
7038
7070
38F0
1FE0
0F80
ENDCHAR
STARTCHAR 00E9
ENCODING 233
SWIDTH 450 0
DWIDTH 15 0
BBX 13 25 1 0
BITMAP
00C0
0180
0300
0200
0400
0000
0000
0F80
1FE0
38E0
7070
7030
E038
E038
E038
FFF8
FFF8
E000
E000
E038
7038
7070
3CF0
1FE0
0F80
ENDCHAR
STARTCHAR 00EA
ENCODING 234
SWIDTH 450 0
DWIDTH 15 0
BBX 14 25 1 0
BITMAP
0700
0780
0CC0
1860
3070
0000
0000
07C0
1FE0
3CF0
7038
7038
E01C
E01C
E01C
FFFC
FFFC
E000
E000
E01C
701C
7038
3C70
1FE0
07C0
ENDCHAR
STARTCHAR 00EB
ENCODING 235
SWIDTH 450 0
DWIDTH 15 0
BBX 13 23 1 0
BITMAP
1CC0
1CC0
1CC0
0000
0000
0780
1FE0
3CF0
7070
7038
E038
E038
E038
FFF8
FFF8
E000
E000
E038
7038
7070
3C70
1FE0
0F80
ENDCHAR
STARTCHAR 00EC
ENCODING 236
SWIDTH 210 0
DWIDTH 7 0
BBX 5 25 1 0
BITMAP
C0
60
20
30
18
00
00
38
38
38
38
38
38
38
38
38
38
38
38
38
38
38
38
38
38
ENDCHAR
STARTCHAR 00ED
ENCODING 237
SWIDTH 210 0
DWIDTH 7 0
BBX 5 25 3 0
BITMAP
18
30
60
C0
80
00
00
E0
E0
E0
E0
E0
E0
E0
E0
E0
E0
E0
E0
E0
E0
E0
E0
E0
E0
ENDCHAR
STARTCHAR 00EE
ENCODING 238
SWIDTH 210 0
DWIDTH 7 0
BBX 10 25 -1 0
BITMAP
0E00
1B00
3300
7180
E0C0
0000
0000
0E00
0E00
0E00
0E00
0E00
0E00
0E00
0E00
0E00
0E00
0E00
0E00
0E00
0E00
0E00
0E00
0E00
0E00
ENDCHAR
STARTCHAR 00EF
ENCODING 239
SWIDTH 210 0
DWIDTH 7 0
BBX 7 23 0 0
BITMAP
E6
E6
E6
00
00
38
38
38
38
38
38
38
38
38
38
38
38
38
38
38
38
38
38
ENDCHAR
STARTCHAR 00F0
ENCODING 240
SWIDTH 510 0
DWIDTH 17 0
BBX 15 24 1 0
BITMAP
0C18
0E38
0770
03C0
03C0
0EE0
0C70
0038
0038
0FFC
1FFC
383C
701E
701E
E00E
E00E
E00E
E00E
E00E
701C
701C
3C78
1FF0
07C0
ENDCHAR
STARTCHAR 00F1
ENCODING 241
SWIDTH 510 0
DWIDTH 17 0
BBX 13 24 2 0
BITMAP
1C20
37E0
61C0
0000
0000
0000
E7C0
EFE0
F8F0
F078
E038
E038
E038
E038
E038
E038
E038
E038
E038
E038
E038
E038
E038
E038
ENDCHAR
STARTCHAR 00F2
ENCODING 242
SWIDTH 510 0
DWIDTH 17 0
BBX 15 25 1 0
BITMAP
0C00
0600
0600
0300
0180
0000
0000
07C0
1FF0
3C78
783C
701C
700C
E00E
E00E
E00E
E00E
E00E
E00E
700C
701C
783C
3C78
1FF0
0FC0
ENDCHAR
STARTCHAR 00F3
ENCODING 243
SWIDTH 510 0
DWIDTH 17 0
BBX 15 25 1 0
BITMAP
00E0
00C0
0180
0300
0200
0000
0000
07C0
1FF0
3C78
783C
701C
700C
E00E
E00E
E00E
E00E
E00E
E00E
700C
701C
783C
3C78
1FF0
0FC0
ENDCHAR
STARTCHAR 00F4
ENCODING 244
SWIDTH 510 0
DWIDTH 17 0
BBX 16 25 1 0
BITMAP
03C0
03C0
0660
0C30
1838
0000
0000
07E0
1FF8
3C3C
781E
700E
700E
E007
E007
E007
E007
E007
E007
700E
700E
781E
3C3C
1FF8
07E0
ENDCHAR
STARTCHAR 00F5
ENCODING 245
SWIDTH 510 0
DWIDTH 17 0
BBX 15 24 1 0
BITMAP
0E10
1BF0
10E0
0000
0000
0000
07C0
1FF0
3C78
783C
701C
700C
E00E
E00E
E00E
E00E
E00E
E00E
700C
701C
783C
3C78
1FF0
07C0
ENDCHAR
STARTCHAR 00F6
ENCODING 246
SWIDTH 510 0
DWIDTH 17 0
BBX 15 23 1 0
BITMAP
0C60
0C60
0C60
0000
0000
07C0
1FF0
3C78
783C
701C
700C
E00E
E00E
E00E
E00E
E00E
E00E
700C
701C
783C
3C78
1FF0
07C0
ENDCHAR
STARTCHAR 00F7
ENCODING 247
SWIDTH 600 0
DWIDTH 20 0
BBX 16 18 2 0
BITMAP
03C0
03C0
03C0
0180
0000
0000
0000
0000
FFFF
FFFF
0000
0000
0000
0000
0180
03C0
03C0
0180
ENDCHAR
STARTCHAR 00F8
ENCODING 248
SWIDTH 510 0
DWIDTH 17 0
BBX 15 22 1 -2
BITMAP
000C
001C
07D8
1FF8
3C78
787C
707C
70CC
E0CE
E18E
E18E
E30E
E70E
E60E
7C0C
7C1C
383C
3C78
3FF0
77C0
6000
E000
ENDCHAR
STARTCHAR 00F9
ENCODING 249
SWIDTH 510 0
DWIDTH 17 0
BBX 13 25 2 0
BITMAP
1800
0C00
0400
0600
0300
0000
0000
E038
E038
E038
E038
E038
E038
E038
E038
E038
E038
E038
E038
E038
E038
E078
70F8
7FB8
1F38
ENDCHAR
STARTCHAR 00FA
ENCODING 250
SWIDTH 510 0
DWIDTH 17 0
BBX 13 25 2 0
BITMAP
00C0
0180
0300
0200
0400
0000
0000
E038
E038
E038
E038
E038
E038
E038
E038
E038
E038
E038
E038
E038
E038
E078
78F8
7FB8
1F38
ENDCHAR
STARTCHAR 00FB
ENCODING 251
SWIDTH 510 0
DWIDTH 17 0
BBX 14 25 2 0
BITMAP
0780
0780
0CC0
1860
3070
0000
0000
E01C
E01C
E01C
E01C
E01C
E01C
E01C
E01C
E01C
E01C
E01C
E01C
E01C
E01C
F03C
78FC
7FDC
1F9C
ENDCHAR
STARTCHAR 00FC
ENCODING 252
SWIDTH 510 0
DWIDTH 17 0
BBX 13 23 2 0
BITMAP
18C0
18C0
18C0
0000
0000
E038
E038
E038
E038
E038
E038
E038
E038
E038
E038
E038
E038
E038
E038
E078
78F8
7FB8
1F38
ENDCHAR
STARTCHAR 00FD
ENCODING 253
SWIDTH 450 0
DWIDTH 15 0
BBX 14 31 0 -6
BITMAP
00E0
01C0
0180
0300
0600
0000
0000
E01C
E01C
6018
7038
7038
3030
3070
3870
1860
1860
1CE0
0CC0
0CC0
0DC0
0780
0780
0780
0300
0700
0700
0600
0E00
0E00
0C00
ENDCHAR
STARTCHAR 00FE
ENCODING 254
SWIDTH 510 0
DWIDTH 17 0
BBX 14 30 2 -6
BITMAP
E000
E000
E000
E000
E000
E000
E7C0
FFE0
F8F0
F038
E038
E018
E01C
E01C
E01C
E01C
E01C
E01C
E018
F038
F038
F8F0
FFE0
E7C0
E000
E000
E000
E000
E000
E000
ENDCHAR
STARTCHAR 00FF
ENCODING 255
SWIDTH 450 0
DWIDTH 15 0
BBX 14 29 0 -6
BITMAP
1CC0
1CC0
1CC0
0000
0000
C01C
E01C
6038
6038
7038
3070
3070
3070
1860
18E0
18E0
0CC0
0DC0
0DC0
0780
0780
0780
0300
0700
0700
0600
0E00
0E00
0C00
ENDCHAR
STARTCHAR 0131
ENCODING 305
SWIDTH 210 0
DWIDTH 7 0
BBX 3 18 2 0
BITMAP
E0
E0
E0
E0
E0
E0
E0
E0
E0
E0
E0
E0
E0
E0
E0
E0
E0
E0
ENDCHAR
STARTCHAR 0141
ENCODING 321
SWIDTH 450 0
DWIDTH 15 0
BBX 14 24 0 0
BITMAP
3800
3800
3800
3800
3800
3800
3800
3800
3820
39E0
3FE0
3F00
FC00
F800
3800
3800
3800
3800
3800
3800
3800
3800
3FFC
3FFC
ENDCHAR
STARTCHAR 0142
ENCODING 322
SWIDTH 210 0
DWIDTH 7 0
BBX 9 24 -1 0
BITMAP
1C00
1C00
1C00
1C00
1C00
1C00
1C00
1C00
1D80
1F80
1F00
7C00
FC00
DC00
1C00
1C00
1C00
1C00
1C00
1C00
1C00
1C00
1C00
1C00
ENDCHAR
STARTCHAR 0152
ENCODING 338
SWIDTH 930 0
DWIDTH 31 0
BBX 28 24 1 0
BITMAP
03F1FFF0
0FFDFFF0
1E1FC000
380FC000
3807C000
7003C000
7003C000
6001C000
E001C000
E001C000
E001C000
E001FFF0
E001FFF0
E001C000
E001C000
E001C000
E001C000
7001C000
7003C000
7003C000
3807C000
1E1FC000
0FFDFFF0
03F1FFF0
ENDCHAR
STARTCHAR 0153
ENCODING 339
SWIDTH 780 0
DWIDTH 26 0
BBX 24 18 1 0
BITMAP
0FC1F0
1FE3FC
3CF71E
703E0E
703E07
E01C07
E01C07
E01C07
E01FFF
E01FFF
E01C00
E01C00
E01C07
703E07
703E0E
3CF79E
1FE3FC
0FC1F0
ENDCHAR
STARTCHAR 0160
ENCODING 352
SWIDTH 510 0
DWIDTH 17 0
BBX 16 30 1 0
BITMAP
1C38
0C70
0660
03C0
0380
0000
07E0
1FF8
3C3C
381C
700E
700E
700E
7000
7800
3C00
1F80
0FF0
01FC
003E
001E
000F
0007
E007
E007
E007
700E
7C1C
3FF8
0FE0
ENDCHAR
STARTCHAR 0161
ENCODING 353
SWIDTH 450 0
DWIDTH 15 0
BBX 14 25 1 0
BITMAP
3870
1C60
0CC0
0780
0300
0000
0000
0FC0
3FF0
3870
7038
7038
7000
7800
3E00
1FE0
07F0
0078
003C
001C
E01C
F01C
7878
3FF0
0FC0
ENDCHAR
STARTCHAR 0178
ENCODING 376
SWIDTH 510 0
DWIDTH 17 0
BBX 15 28 1 0
BITMAP
0C60
0C60
0C60
0000
E006
E00E
700C
701C
381C
3838
1838
1C70
0C70
0E60
0EE0
06C0
07C0
0380
0380
0380
0380
0380
0380
0380
0380
0380
0380
0380
ENDCHAR
STARTCHAR 017D
ENCODING 381
SWIDTH 450 0
DWIDTH 15 0
BBX 13 30 1 0
BITMAP
3070
18E0
0DC0
0D80
0700
0000
FFF8
FFF8
0038
0070
0070
00E0
00E0
01C0
01C0
0380
0380
0700
0700
0E00
0E00
1C00
1C00
3800
3800
7000
7000
E000
FFF8
FFF8
ENDCHAR
STARTCHAR 017E
ENCODING 382
SWIDTH 450 0
DWIDTH 15 0
BBX 12 25 1 0
BITMAP
3070
18E0
09C0
0F80
0700
0000
0000
7FF0
7FF0
0070
00E0
00E0
01C0
0380
0380
0700
0E00
0E00
1C00
3800
3800
7000
E000
FFF0
FFF0
ENDCHAR
STARTCHAR 0192
ENCODING 402
SWIDTH 570 0
DWIDTH 19 0
BBX 18 30 0 -6
BITMAP
0007C0
001FC0
003C00
003000
007000
006000
006000
00E000
00E000
00E000
0FFF00
1FFF00
00E000
00E000
00E000
00E000
00E000
00E000
00E000
00E000
00E000
00E000
01C000
01C000
01C000
01C000
038000
478000
7F0000
FC0000
ENDCHAR
STARTCHAR 02C6
ENCODING 710
SWIDTH 210 0
DWIDTH 7 0
BBX 10 5 -1 20
BITMAP
1E00
1E00
3300
6180
E1C0
ENDCHAR
STARTCHAR 02C7
ENCODING 711
SWIDTH 210 0
DWIDTH 7 0
BBX 10 5 -1 20
BITMAP
E1C0
6180
3300
1E00
1E00
ENDCHAR
STARTCHAR 02C9
ENCODING 713
SWIDTH 210 0
DWIDTH 7 0
BBX 10 2 -1 21
BITMAP
FFC0
FFC0
ENDCHAR
STARTCHAR 02D8
ENCODING 728
SWIDTH 210 0
DWIDTH 7 0
BBX 9 5 -1 20
BITMAP
8080
C180
E300
7F00
3C00
ENDCHAR
STARTCHAR 02D9
ENCODING 729
SWIDTH 210 0
DWIDTH 7 0
BBX 3 3 3 20
BITMAP
E0
E0
E0
ENDCHAR
STARTCHAR 02DA
ENCODING 730
SWIDTH 210 0
DWIDTH 7 0
BBX 7 7 0 20
BITMAP
38
44
82
82
82
44
38
ENDCHAR
STARTCHAR 02DB
ENCODING 731
SWIDTH 210 0
DWIDTH 7 0
BBX 8 7 0 -5
BITMAP
0E
30
60
E0
E1
F7
7C
ENDCHAR
STARTCHAR 02DC
ENCODING 732
SWIDTH 210 0
DWIDTH 7 0
BBX 10 3 -1 20
BITMAP
7840
DFC0
8780
ENDCHAR
STARTCHAR 02DD
ENCODING 733
SWIDTH 210 0
DWIDTH 7 0
BBX 10 5 0 20
BITMAP
19C0
3B80
3300
6600
CC00
ENDCHAR
STARTCHAR 03BC
ENCODING 956
SWIDTH 510 0
DWIDTH 17 0
BBX 13 24 2 -6
BITMAP
E038
E038
E038
E038
E038
E038
E038
E038
E038
E038
E038
E038
E038
E038
E078
F8F8
FFB8
FF38
E000
E000
E000
E000
E000
E000
ENDCHAR
STARTCHAR 2013
ENCODING 8211
SWIDTH 510 0
DWIDTH 17 0
BBX 16 2 0 8
BITMAP
FFFF
FFFF
ENDCHAR
STARTCHAR 2014
ENCODING 8212
SWIDTH 990 0
DWIDTH 33 0
BBX 33 2 0 8
BITMAP
FFFFFFFF80
FFFFFFFF80
ENDCHAR
STARTCHAR 2018
ENCODING 8216
SWIDTH 210 0
DWIDTH 7 0
BBX 5 7 1 16
BITMAP
C0
60
60
30
30
18
18
ENDCHAR
STARTCHAR 2019
ENCODING 8217
SWIDTH 210 0
DWIDTH 7 0
BBX 6 7 1 16
BITMAP
1C
18
38
30
70
60
E0
ENDCHAR
STARTCHAR 201A
ENCODING 8218
SWIDTH 210 0
DWIDTH 7 0
BBX 6 7 1 -4
BITMAP
1C
18
38
30
60
60
C0
ENDCHAR
STARTCHAR 201C
ENCODING 8220
SWIDTH 330 0
DWIDTH 11 0
BBX 9 7 1 16
BITMAP
CC00
6C00
6600
3600
3300
1B00
1980
ENDCHAR
STARTCHAR 201D
ENCODING 8221
SWIDTH 330 0
DWIDTH 11 0
BBX 9 7 1 16
BITMAP
1980
1B80
3300
3600
6600
6C00
CC00
ENDCHAR
STARTCHAR 201E
ENCODING 8222
SWIDTH 330 0
DWIDTH 11 0
BBX 9 7 1 -4
BITMAP
1980
1B00
3300
3600
6600
6C00
CC00
ENDCHAR
STARTCHAR 2020
ENCODING 8224
SWIDTH 450 0
DWIDTH 15 0
BBX 10 27 2 -3
BITMAP
0C00
0C00
0C00
0C00
0C00
0C00
E5C0
FFC0
0400
0C00
0C00
0C00
0C00
0C00
0C00
0C00
0C00
0C00
0C00
0C00
0C00
0C00
0C00
0C00
0C00
0C00
0C00
ENDCHAR
STARTCHAR 2021
ENCODING 8225
SWIDTH 450 0
DWIDTH 15 0
BBX 11 27 2 -3
BITMAP
0E00
0E00
0400
0400
0400
0400
E4E0
FFE0
0400
0400
0400
0400
0E00
0E00
0E00
0400
0400
0400
8460
FFE0
C460
0400
0400
0400
0400
0E00
0E00
ENDCHAR
STARTCHAR 2022
ENCODING 8226
SWIDTH 510 0
DWIDTH 17 0
BBX 12 12 2 6
BITMAP
0F00
3FC0
7FE0
7FF0
FFF0
FFF0
FFF0
FFF0
7FE0
7FE0
3FC0
0F00
ENDCHAR
STARTCHAR 2026
ENCODING 8230
SWIDTH 990 0
DWIDTH 33 0
BBX 25 3 4 1
BITMAP
E01C0380
E01C0380
E01C0380
ENDCHAR
STARTCHAR 2030
ENCODING 8240
SWIDTH 990 0
DWIDTH 33 0
BBX 31 24 1 0
BITMAP
1E060000
7F860000
61860000
C0CC0000
C0CC0000
C0D80000
C0D80000
C0D80000
E1B00000
61B00000
3F200000
1E600000
006780F0
00CFC1F8
00DC638C
00D83306
01B03606
01B03606
03303606
03303606
03303606
0618630C
060FE1FC
0C0780F0
ENDCHAR
STARTCHAR 2039
ENCODING 8249
SWIDTH 270 0
DWIDTH 9 0
BBX 6 12 1 3
BITMAP
1C
18
30
70
60
E0
E0
60
70
30
18
1C
ENDCHAR
STARTCHAR 203A
ENCODING 8250
SWIDTH 270 0
DWIDTH 9 0
BBX 6 12 1 3
BITMAP
E0
60
30
30
18
1C
1C
18
30
30
60
E0
ENDCHAR
STARTCHAR 2044
ENCODING 8260
SWIDTH 180 0
DWIDTH 6 0
BBX 16 24 -5 0
BITMAP
0007
000E
000E
001C
0018
0038
0030
0070
00E0
00E0
01C0
0180
0380
0300
0700
0E00
0E00
1C00
1800
3800
3000
7000
E000
E000
ENDCHAR
STARTCHAR 20AC
ENCODING 8364
SWIDTH 570 0
DWIDTH 19 0
BBX 16 24 1 0
BITMAP
00FC
03FF
07FF
0E01
1C00
1C00
1800
3800
3800
FFFC
FFFC
3800
3800
FFF8
FFF0
3800
3800
1800
1C00
1E00
0F01
07FF
03FF
01FC
ENDCHAR
STARTCHAR 2122
ENCODING 8482
SWIDTH 990 0
DWIDTH 33 0
BBX 28 13 1 10
BITMAP
FFE780F0
FFE7C1F0
0E07C1F0
0E07C1F0
0E076370
0E076370
0E076370
0E073670
0E073670
0E073E70
0E071C70
0E071C70
0E070870
ENDCHAR
STARTCHAR 2212
ENCODING 8722
SWIDTH 600 0
DWIDTH 20 0
BBX 17 2 2 8
BITMAP
FFFF80
FFFF80
ENDCHAR
STARTCHAR 2215
ENCODING 8725
SWIDTH 180 0
DWIDTH 6 0
BBX 16 24 -5 0
BITMAP
0007
000E
000E
001C
0018
0038
0030
0070
00E0
00E0
01C0
0180
0380
0300
0700
0E00
0E00
1C00
1800
3800
3000
7000
E000
E000
ENDCHAR
STARTCHAR 2219
ENCODING 8729
SWIDTH 270 0
DWIDTH 9 0
BBX 3 3 3 7
BITMAP
E0
E0
E0
ENDCHAR
STARTCHAR FB01
ENCODING 64257
SWIDTH 450 0
DWIDTH 15 0
BBX 13 24 0 0
BITMAP
0F38
1F38
3838
3800
3800
3800
FF38
FF38
3838
3838
3838
3838
3838
3838
3838
3838
3838
3838
3838
3838
3838
3838
3838
3838
ENDCHAR
STARTCHAR FB02
ENCODING 64258
SWIDTH 450 0
DWIDTH 15 0
BBX 13 24 0 0
BITMAP
0F38
1F38
3838
3838
3838
3838
FF38
FF38
3838
3838
3838
3838
3838
3838
3838
3838
3838
3838
3838
3838
3838
3838
3838
3838
ENDCHAR
ENDFONT
